<svg width="35" height="35" viewBox="0 0 19 19" fill="none" xmlns="http://www.w3.org/2000/svg">
<g clip-path="url(#clip0_28_3271)">
<path d="M0.130859 18.5938C0.27245 18.077 0.406223 17.5867 0.540864 17.0962C0.819702 16.0799 1.10201 15.0648 1.37303 14.0465C1.39909 13.9487 1.38751 13.8146 1.33916 13.7273C-1.15098 9.21028 0.594721 3.52763 5.19656 1.18709C10.2831 -1.39973 16.4659 1.20151 18.1415 6.63326C19.6206 11.4283 16.9008 16.563 12.0818 18.0337C9.68866 18.7642 7.36646 18.5352 5.13025 17.4149C5.04426 17.3716 4.91946 17.3598 4.82565 17.3837C3.32895 17.767 1.83458 18.1589 0.339626 18.5482C0.279978 18.5638 0.219173 18.5747 0.130859 18.5938ZM2.32884 16.4355C3.24817 16.1953 4.12927 15.9689 5.00806 15.7321C5.15747 15.692 5.27127 15.7119 5.40301 15.7907C7.09949 16.8038 8.92743 17.1377 10.8645 16.7539C14.9715 15.9403 17.6334 11.9834 16.8594 7.87765C16.0904 3.799 12.0731 1.07491 7.97104 1.85067C2.84164 2.8208 0.168791 8.517 2.74869 13.0334C3.01595 13.5012 3.07038 13.8856 2.90389 14.3782C2.67978 15.0409 2.52342 15.7261 2.32884 16.4355Z" fill="#FDFDFF"/>
<path d="M6.41265 5.10683C6.80036 5.01108 6.9906 5.24381 7.1264 5.5942C7.33401 6.13002 7.56101 6.65863 7.78918 7.18638C7.86852 7.37008 7.86157 7.53158 7.74227 7.6899C7.56101 7.92984 7.38757 8.17612 7.19589 8.40769C7.06646 8.564 7.05488 8.70358 7.15854 8.87719C7.90674 10.1288 8.95086 11.034 10.312 11.5742C10.4994 11.6486 10.6473 11.6145 10.7727 11.4582C10.9971 11.1788 11.227 10.9034 11.4491 10.6222C11.6127 10.4154 11.7068 10.3644 11.9419 10.4711C12.5891 10.765 13.2304 11.0718 13.8657 11.3908C13.9442 11.4303 14.0148 11.5745 14.0134 11.6688C13.9986 12.6415 13.7114 13.1075 12.6707 13.5436C12.0803 13.7907 11.4674 13.7327 10.8584 13.5637C8.64915 12.9509 7.02158 11.5678 5.71947 9.74436C5.31496 9.17797 4.95013 8.59399 4.79522 7.90734C4.57226 6.91904 4.81607 6.06225 5.54574 5.34676C5.78288 5.11432 6.06953 5.06789 6.41265 5.10683Z" fill="#FDFDFF"/>
</g>
<defs>
<clipPath id="clip0_28_3271">
<rect width="18.414" height="18.414" fill="white" transform="translate(0.130859 0.179688)"/>
</clipPath>
</defs>
</svg>
